<?xml version="1.0" encoding="UTF-8"?>
<!-- Generator: Adobe Illustrator 25.2.1, SVG Export Plug-In . SVG Version: 6.00 Build 0)  -->
<svg version="1.1" id="Capa_1" xmlns="http://www.w3.org/2000/svg" xmlns:xlink="http://www.w3.org/1999/xlink" x="0px" y="0px" viewBox="0 0 95.2 63.7" style="enable-background:new 0 0 95.2 63.7;" xml:space="preserve">
<style type="text/css">
	.st0{fill:#151416;}
	.st1{opacity:0.6;enable-background:new    ;}
	.st2{opacity:5.000000e-02;fill:#FFFFFF;enable-background:new    ;}
	.st3{fill:none;stroke:#FFFFFF;stroke-width:2;stroke-miterlimit:10;}
	.st4{fill:none;stroke:#FFFFFF;stroke-miterlimit:10;}
	.st5{fill:none;}
	.st6{fill:#FFFFFF;}
	.st7{opacity:0.2;fill:none;stroke:#FFFFFF;stroke-miterlimit:10;enable-background:new    ;}
	.st8{opacity:0.6;}
	.st9{fill:none;stroke:#000000;stroke-miterlimit:10;}
	.st10{fill:#98789F;}
	.st11{fill:#471e96;}
	.st12{opacity:0.6;fill:#FFFFFF;enable-background:new    ;}
	.st13{filter:url(#Adobe_OpacityMaskFilter);}
	.st14{fill:url(#SVGID_1_);}
	.st15{fill:url(#SVGID_4_);}
	.st16{fill:url(#SVGID_5_);}
	.st17{fill:url(#SVGID_6_);}
	.st18{mask:url(#SVGID_2_);}
	.st19{filter:url(#Adobe_OpacityMaskFilter_1_);}
	.st20{fill:url(#SVGID_7_);}
	.st21{fill:url(#SVGID_8_);}
	.st22{fill:url(#SVGID_9_);}
	.st23{opacity:0.2;mask:url(#SVGID_3_);}
	.st24{fill:#4B356D;}
	.st25{fill:none;stroke:#471e96;stroke-width:2;stroke-miterlimit:10;}
	.st26{opacity:0.1;fill:#FFFFFF;enable-background:new    ;}
	.st27{opacity:2.000000e-02;fill:#FFFFFF;enable-background:new    ;}
	.st28{opacity:5.000000e-02;}
	.st29{fill:#22AF8A;}
	.st30{opacity:0.2;}
	.st31{opacity:0.4;}
	.st32{fill:none;stroke:#471e96;stroke-miterlimit:10;}
</style>
<path class="st10" d="M45.9,54c-0.8,1.3-1.7,2.6-2.5,3.9s-1.5,2.5-2.2,3.6c-0.7,1.1-1.1,1.8-1.3,2.3l55.3-0.1  c-1.1-1.8-2.3-3.8-3.6-5.9l0.2,0L89.5,54c-0.3-0.6-0.7-1.2-1.1-1.8c-2.6-4.3-5.3-8.8-8-13.4c-2.8-4.6-5.5-9.1-8.2-13.6  s-5.1-8.5-7.3-12.2c-2.2-3.6-4-6.6-5.5-9c-1.5-2.4-2.4-3.7-2.7-4H38.3c-6.6,10.6-13,21.2-19.3,31.7c-6.3,10.5-12.6,21.2-19,32h19.2  c4.9-7.7,9.6-15.5,14.2-23.3s9.4-15.6,14.4-23.2C51.1,22.7,54.5,28.4,58,34s6.8,11.2,9.7,16.7H48C47.5,51.6,46.8,52.7,45.9,54z"/>
</svg>