<?xml version="1.0" encoding="utf-8"?>
<!-- Generator: Adobe Illustrator 25.2.1, SVG Export Plug-In . SVG Version: 6.00 Build 0)  -->
<svg version="1.1" id="Capa_1" xmlns="http://www.w3.org/2000/svg" xmlns:xlink="http://www.w3.org/1999/xlink" x="0px" y="0px"
	 viewBox="0 0 2062.5 216.9" style="enable-background:new 0 0 2062.5 216.9;" xml:space="preserve">
<style type="text/css">
	.st0{fill:#151416;}
	.st1{fill:#FFFFFF;}
</style>
<g>
	<path class="st1" d="M610.9,132.4c-9.2-15.3-18.3-30.4-27.2-45.4c-8.9-14.9-17-28.4-24.3-40.6c-7.3-12.1-13.4-22.1-18.3-29.9
		c-4.9-7.8-7.9-12.2-8.9-13.2h-61.3c-21.8,35.3-43.3,70.4-64.3,105.5c-21,35.1-42.1,70.5-63.1,106.4h64c16.2-25.6,32-51.5,47.3-77.7
		c15.3-26.1,31.3-51.9,47.9-77.4c10.8,18.8,22.1,37.6,34,56.3c11.8,18.7,22.5,37.2,32.1,55.4h-65.6c-1.8,3-4.1,6.7-6.9,11
		c-2.8,4.3-5.6,8.6-8.3,12.9c-2.7,4.3-5.2,8.3-7.4,11.9c-2.2,3.6-3.6,6.1-4.2,7.5l184-0.3c-6.6-10.8-14.2-23.4-22.8-37.9
		C629.1,162.5,620.2,147.7,610.9,132.4z"/>
	<path class="st1" d="M817.1,5.1c-17.6,34.9-34.9,69.8-51.8,104.7c-16.9,35-33.9,70.2-50.9,105.6H775c17.2-35,34.3-70.1,51.2-105
		c16.9-35,34-70.1,51.2-105.3H817.1z"/>
	<path class="st1" d="M1024.1,5.1h-60.4c-18.2,34.9-36,69.8-53.2,104.9c-17.2,35.1-34.7,70.2-52.3,105.5h55
		c12-21.8,23.7-43.9,35-66.2c11.3-22.3,23.2-44.4,35.6-66.2c5.6,22.4,11.4,44.6,17.3,66.4c5.9,21.8,11.8,43.9,17.6,66.1h60.4
		c-9-35.5-18.1-70.6-27.3-105.3C1042.5,75.4,1033.3,40.4,1024.1,5.1z"/>
	<path class="st1" d="M1182.6,5.7c-0.1,0.6-0.1,1.2-0.1,1.8c0.2,34.9,0.2,69.5,0.1,104c-0.1,34.5-0.1,69.1-0.1,104h62.5V4.8h-61.3
		C1183,4.8,1182.7,5.1,1182.6,5.7z"/>
	<path class="st1" d="M1596.2,23.1c0-4,0-7.9,0-11.6c0-3.7,0.1-7.6,0.3-11.6h-63.4v121.1c0,2.8,0,5.9,0.1,9.2
		c0.1,3.3,0.1,6.7,0.1,10.1c0,3.4-0.2,6.7-0.6,9.9c-0.4,3.2-1.2,6-2.4,8.4c-1.6,3.8-4.3,7-8,9.5c-3.7,2.5-7.8,4.5-12.3,6
		c-4.5,1.5-9.1,2.6-13.8,3.2c-4.7,0.6-8.9,0.9-12.5,0.9c-3.6,0-7.6-0.3-11.9-0.8c-4.3-0.5-8.6-1.5-12.8-2.9
		c-4.2-1.4-8.1-3.2-11.6-5.4c-3.5-2.2-6.2-5.1-8-8.7c-1.2-2.4-2.1-5.2-2.7-8.3c-0.6-3.1-1.1-6.3-1.4-9.6c-0.3-3.3-0.4-6.6-0.4-9.9
		s0-6.3,0-8.9V0h-61.3c-0.4,0-0.7,0.2-0.8,0.6c-0.1,0.4-0.1,0.7-0.1,0.9c0,15-0.2,30-0.6,44.9c-0.4,14.9-0.6,29.9-0.6,44.9
		c0,4.8,0.1,11.3,0.4,19.5c0.3,8.2,0.8,16.7,1.7,25.5c0.8,8.8,1.9,17.1,3.3,24.9c1.4,7.8,3.3,13.6,5.7,17.4
		c4.4,7.4,10.9,13.6,19.5,18.5c8.6,4.9,17.9,8.8,27.8,11.7c9.9,2.9,20,5,30.2,6.2c10.2,1.2,19.2,1.8,27,1.8c10.8,0,22-0.9,33.5-2.7
		c11.5-1.8,22.3-5.1,32.3-9.9c7.6-3.4,15.2-8.2,22.7-14.4c7.5-6.2,12.9-13.3,16.1-21.3c1.4-3.6,2.5-8.5,3.2-14.6
		c0.7-6.1,1.1-12.5,1.4-19.1c0.2-6.6,0.3-13.1,0.3-19.5c0-6.4,0-11.7,0-15.9c0-12.8-0.1-25.5-0.3-38.2
		C1596.3,48.7,1596.2,36,1596.2,23.1z"/>
	<path class="st1" d="M1800.5,5.1c-17.6,34.9-34.9,69.8-51.8,104.7c-16.9,35-33.9,70.2-50.9,105.6h60.7c17.2-35,34.3-70.1,51.2-105
		c16.9-35,34-70.1,51.2-105.3H1800.5z"/>
	<path class="st1" d="M2035.1,110.1c-9.2-34.8-18.4-69.8-27.6-105h-60.4c-18.2,34.9-36,69.8-53.2,104.9
		c-17.2,35.1-34.7,70.2-52.3,105.5h55c12-21.8,23.7-43.9,35-66.2c11.3-22.3,23.2-44.4,35.6-66.2c5.6,22.4,11.4,44.6,17.3,66.4
		c5.9,21.8,11.8,43.9,17.6,66.1h60.4C2053.4,180,2044.3,144.9,2035.1,110.1z"/>
	<path class="st1" d="M70.1,84.4c4.8-9.4,11.5-16.8,20-22.2c8.5-5.4,18.4-9.5,29.6-12.3c11.2-2.8,23.6-4.6,37.1-5.3
		c13.5-0.7,27.7-0.9,42.5-0.5h62.2V5.3c-15,0.2-30.1,0.2-45.2,0c-15.1-0.2-29.9-0.2-44.5,0.1c-14.5,0.3-28.6,1-42.4,2.1
		c-13.7,1.1-26.8,3.2-39.2,6.2c-11.6,2.8-23.1,7.2-34.4,13.1C44.5,32.7,34.6,40.2,26,49.2c-8.6,9-15.4,19.7-20.3,32.1
		c-3.5,8.8-5.4,18.5-5.7,29c0.3,10.5,2.2,20.2,5.7,29c4.9,12.4,11.7,23.1,20.3,32.1c8.6,9,18.6,16.5,29.9,22.4
		c11.3,5.9,22.8,10.3,34.4,13.1c12.4,3,25.5,5.1,39.2,6.2c13.7,1.1,27.8,1.8,42.4,2.1c14.5,0.3,29.3,0.3,44.5,0.1
		c15.1-0.2,30.2-0.2,45.2,0v-38.8v-28.2h-62.2v28.2c-14.8,0.4-29,0.3-42.5-0.5c-13.5-0.7-25.9-2.5-37.1-5.3
		c-11.2-2.8-21.1-6.9-29.6-12.3c-8.5-5.4-15.2-12.8-20-22.2c-2.8-5.2-4.8-11.3-5.9-18.3c-0.4-2.7-0.7-5.2-0.8-7.7l0,0
		c0.1-2.5,0.4-5,0.8-7.7C65.4,95.7,67.3,89.6,70.1,84.4z"/>
</g>
</svg>
